<?xml version="1.0" encoding="utf-8"?>
<!-- Generator: Adobe Illustrator 25.2.1, SVG Export Plug-In . SVG Version: 6.00 Build 0)  -->
<svg version="1.1" id="Layer_1" xmlns="http://www.w3.org/2000/svg" xmlns:xlink="http://www.w3.org/1999/xlink" x="0px" y="0px"
	 viewBox="0 0 1321.9 364.2" style="enable-background:new 0 0 1321.9 364.2;" xml:space="preserve">
<style type="text/css">
	.st0{opacity:0.5;fill:#002E3D;enable-background:new    ;}
	.st1{fill:url(#SVGID_1_);}
	.st2{fill:#FFFFFF;}
	.st3{font-family:'Montserrat-Bold';}
	.st4{font-size:102.96px;}
	.st5{letter-spacing:-1;}
	.st6{letter-spacing:-3;}
</style>
<g id="Layer_4">
	<rect x="82" y="103.3" class="st0" width="1162.9" height="157.6"/>
	
		<linearGradient id="SVGID_1_" gradientUnits="userSpaceOnUse" x1="76.97" y1="181.7748" x2="1244.97" y2="181.7748" gradientTransform="matrix(1 0 0 -1 0 363.8898)">
		<stop  offset="0" style="stop-color:#FAB03B"/>
		<stop  offset="0.57" style="stop-color:#F7941F"/>
		<stop  offset="0.89" style="stop-color:#F36823"/>
		<stop  offset="1" style="stop-color:#F25924"/>
		<stop  offset="1" style="stop-color:#F25924"/>
	</linearGradient>
	<path class="st1" d="M1245,265.9H77V98.3h1168V265.9z M82,260.9h1157.9V103.3H82V260.9z"/>
	<text transform="matrix(1 0 0 1 115.43 218.825)" class="st2 st3 st4">TRO</text>
	<text transform="matrix(1 0 0 1 341.62 218.825)" class="st2 st3 st4 st5">P</text>
	<text transform="matrix(1 0 0 1 415.95 218.825)" class="st2 st3 st4">I</text>
	<text transform="matrix(1 0 0 1 449.72 218.825)" class="st2 st3 st4 st5">C</text>
	<text transform="matrix(1 0 0 1 523.75 218.825)" class="st2 st3 st4">AL </text>
	<text transform="matrix(1 0 0 1 693.93 218.825)" class="st2 st3 st4 st5">C</text>
	<text transform="matrix(1 0 0 1 768.67 218.825)" class="st2 st3 st4 st6">Y</text>
	<text transform="matrix(1 0 0 1 835.18 218.825)" class="st2 st3 st4">C</text>
	<text transform="matrix(1 0 0 1 910.65 218.825)" class="st2 st3 st4 st5">L</text>
	<text transform="matrix(1 0 0 1 971.6 218.825)" class="st2 st3 st4">ONE</text>
</g>
</svg>
