<?xml version="1.0" encoding="utf-8"?>
<!-- Generator: Adobe Illustrator 25.2.1, SVG Export Plug-In . SVG Version: 6.00 Build 0)  -->
<svg version="1.1" id="Layer_1" xmlns="http://www.w3.org/2000/svg" xmlns:xlink="http://www.w3.org/1999/xlink" x="0px" y="0px"
	 viewBox="-193.4 0 1321.9 364.2" style="enable-background:new 0 0 935.1 364.2;" xml:space="preserve">
<style type="text/css">
	.st0{opacity:0.5;fill:#002E3D;enable-background:new    ;}
	.st1{fill:url(#SVGID_1_);}
	.st2{enable-background:new    ;}
	.st3{fill:#FFFFFF;}
</style>
<g id="Layer_4">
	<rect x="34.8" y="103.3" class="st0" width="852.6" height="157.6"/>
	
		<linearGradient id="SVGID_1_" gradientUnits="userSpaceOnUse" x1="29.73" y1="183.89" x2="887.34" y2="183.89" gradientTransform="matrix(1 0 0 -1 0 366)">
		<stop  offset="0" style="stop-color:#FAB03B"/>
		<stop  offset="0.57" style="stop-color:#F7941F"/>
		<stop  offset="0.89" style="stop-color:#F36823"/>
		<stop  offset="1" style="stop-color:#F25924"/>
		<stop  offset="1" style="stop-color:#F25924"/>
	</linearGradient>
	<path class="st1" d="M887.3,265.9H29.7V98.3h857.6V265.9z M34.8,260.9h847.5V103.3H34.8L34.8,260.9z"/>
	<g class="st2">
		<path class="st3" d="M142.9,205.4v13.4H87.1v-72.1h54.5v13.4h-37.9v15.7h33.5v13h-33.5v16.7H142.9z"/>
		<path class="st3" d="M203.6,203.4h-33.5l-6.4,15.4h-17.1l32.1-72.1h16.5l32.2,72.1H210L203.6,203.4z M198.4,190.7l-11.4-27.6
			l-11.4,27.6H198.4z"/>
	</g>
	<g class="st2">
		<path class="st3" d="M280.9,218.8L267,198.7h-0.8h-14.5v20.1H235v-72.1h31.2c19.3,0,31.3,10,31.3,26.2c0,10.8-5.5,18.7-14.8,22.8
			l16.2,23.2H280.9z M265.3,160.3h-13.6v25.1h13.6c10.2,0,15.3-4.7,15.3-12.6C280.6,165,275.5,160.3,265.3,160.3z"/>
	</g>
	<g class="st2">
		<path class="st3" d="M324.6,160.3h-23.1v-13.6h62.8v13.6h-23.1v58.5h-16.7V160.3z"/>
		<path class="st3" d="M439.4,146.7v72.1h-16.7v-29.6H390v29.6h-16.7v-72.1H390v28.4h32.7v-28.4H439.4z"/>
		<path class="st3" d="M534.4,226.5c-4.7,5.8-11.5,8.9-19.5,8.9c-10.7,0-18.2-3.9-29.3-15.7c-19.8-2.5-33.7-17.4-33.7-37
			c0-21.4,16.7-37.3,39.4-37.3c22.7,0,39.4,15.8,39.4,37.3c0,16.9-10.4,30.3-25.7,35.2c3.5,3.7,6.6,5,10.2,5c4.4,0,8.3-1.8,11.7-5.4
			L534.4,226.5z M491.4,205.8c12.9,0,22.5-9.4,22.5-23.1c0-13.7-9.7-23.1-22.5-23.1c-12.9,0-22.5,9.4-22.5,23.1
			C468.8,196.5,478.5,205.8,491.4,205.8z"/>
	</g>
	<g class="st2">
		<path class="st3" d="M542.7,187.1v-40.4h16.7v39.7c0,13.7,6,19.4,16.1,19.4c10.2,0,16.1-5.7,16.1-19.4v-39.7H608v40.4
			c0,21.2-12.2,32.9-32.6,32.9S542.7,208.3,542.7,187.1z"/>
	</g>
	<g class="st2">
		<path class="st3" d="M670.4,203.4H637l-6.4,15.4h-17.1l32.1-72.1h16.5l32.2,72.1h-17.5L670.4,203.4z M665.2,190.7l-11.4-27.6
			l-11.4,27.6H665.2z"/>
		<path class="st3" d="M728.1,190.5l-9.7,10.1v18.2h-16.6v-72.1h16.6v33.7l31.9-33.7h18.5L739,178.9l31.6,40h-19.5L728.1,190.5z"/>
		<path class="st3" d="M833.8,205.4v13.4H778v-72.1h54.5v13.4h-37.9v15.7h33.5v13h-33.5v16.7H833.8z"/>
	</g>
</g>
</svg>
