<?xml version="1.0" encoding="utf-8"?>
<!-- Generator: Adobe Illustrator 25.2.1, SVG Export Plug-In . SVG Version: 6.00 Build 0)  -->
<svg version="1.1" id="Layer_1" xmlns="http://www.w3.org/2000/svg" xmlns:xlink="http://www.w3.org/1999/xlink" x="0px" y="0px"
	 viewBox="0 0 1546.6 364.2" style="enable-background:new 0 0 1546.6 364.2;" xml:space="preserve">
<style type="text/css">
	.st0{fill:url(#SVGID_1_);}
	.st1{fill:url(#SVGID_2_);}
	.st2{fill:url(#SVGID_3_);}
	.st3{fill:url(#SVGID_4_);}
	.st4{fill:url(#SVGID_5_);}
	.st5{fill:url(#SVGID_6_);}
	.st6{fill:url(#SVGID_7_);}
	.st7{fill:url(#SVGID_8_);}
	.st8{fill:url(#SVGID_9_);}
	.st9{fill:url(#SVGID_10_);}
	.st10{fill:url(#SVGID_11_);}
	.st11{fill:#FFFFFF;}
</style>
<g>
	<g>
		
			<linearGradient id="SVGID_1_" gradientUnits="userSpaceOnUse" x1="29.3" y1="183.9" x2="1517.3" y2="183.9" gradientTransform="matrix(1 0 0 -1 0 366)">
			<stop  offset="0" style="stop-color:#FAB03B"/>
			<stop  offset="0.5679" style="stop-color:#F7941F"/>
			<stop  offset="0.8938" style="stop-color:#F36823"/>
			<stop  offset="0.999" style="stop-color:#F25924"/>
			<stop  offset="1" style="stop-color:#F25924"/>
		</linearGradient>
		<path class="st0" d="M1517.3,265.9H29.3V98.3h1488V265.9z M34.4,260.9h1477.9V103.3H34.4V260.9z"/>
	</g>
</g>
<g>
	
		<linearGradient id="SVGID_2_" gradientUnits="userSpaceOnUse" x1="87.1275" y1="183.3" x2="945.7058" y2="183.3" gradientTransform="matrix(1 0 0 -1 0 366)">
		<stop  offset="0" style="stop-color:#FAB03B"/>
		<stop  offset="0.5679" style="stop-color:#F7941F"/>
		<stop  offset="0.8938" style="stop-color:#F36823"/>
		<stop  offset="0.999" style="stop-color:#F25924"/>
		<stop  offset="1" style="stop-color:#F25924"/>
	</linearGradient>
	<path class="st1" d="M126.4,181.6h15.2v29.2c-7.9,6-18.8,9.2-29.1,9.2c-22.6,0-39.3-15.5-39.3-37.3s16.7-37.3,39.6-37.3
		c12.7,0,23.2,4.3,30.2,12.5l-10.7,9.9c-5.2-5.6-11.3-8.1-18.6-8.1c-14,0-23.6,9.4-23.6,23.1c0,13.5,9.6,23.1,23.4,23.1
		c4.5,0,8.8-0.8,13-3.1v-21.2H126.4z"/>
	
		<linearGradient id="SVGID_3_" gradientUnits="userSpaceOnUse" x1="87.1275" y1="183.25" x2="945.7058" y2="183.25" gradientTransform="matrix(1 0 0 -1 0 366)">
		<stop  offset="0" style="stop-color:#FAB03B"/>
		<stop  offset="0.5679" style="stop-color:#F7941F"/>
		<stop  offset="0.8938" style="stop-color:#F36823"/>
		<stop  offset="0.999" style="stop-color:#F25924"/>
		<stop  offset="1" style="stop-color:#F25924"/>
	</linearGradient>
	<path class="st2" d="M212.8,205.4v13.4H157v-72.1h54.5v13.4h-37.9v15.6h33.5v13h-33.5v16.7L212.8,205.4L212.8,205.4z"/>
	
		<linearGradient id="SVGID_4_" gradientUnits="userSpaceOnUse" x1="87.1275" y1="183.2" x2="945.7058" y2="183.2" gradientTransform="matrix(1 0 0 -1 0 366)">
		<stop  offset="0" style="stop-color:#FAB03B"/>
		<stop  offset="0.5679" style="stop-color:#F7941F"/>
		<stop  offset="0.8938" style="stop-color:#F36823"/>
		<stop  offset="0.999" style="stop-color:#F25924"/>
		<stop  offset="1" style="stop-color:#F25924"/>
	</linearGradient>
	<path class="st3" d="M221.4,182.8c0-21.4,16.7-37.3,39.4-37.3c22.6,0,39.4,15.8,39.4,37.3s-16.8,37.3-39.4,37.3
		C238.1,220.1,221.4,204.2,221.4,182.8z M283.4,182.8c0-13.7-9.7-23.1-22.5-23.1c-12.9,0-22.5,9.4-22.5,23.1
		c0,13.7,9.7,23.1,22.5,23.1C273.7,205.8,283.4,196.5,283.4,182.8z"/>
	
		<linearGradient id="SVGID_5_" gradientUnits="userSpaceOnUse" x1="87.1275" y1="183.2489" x2="945.7058" y2="183.2489" gradientTransform="matrix(1 0 0 -1 0 366)">
		<stop  offset="0" style="stop-color:#FAB03B"/>
		<stop  offset="0.5679" style="stop-color:#F7941F"/>
		<stop  offset="0.8938" style="stop-color:#F36823"/>
		<stop  offset="0.999" style="stop-color:#F25924"/>
		<stop  offset="1" style="stop-color:#F25924"/>
	</linearGradient>
	<path class="st4" d="M307.1,211.7l5.7-12.6c6.1,4.4,15.1,7.5,23.8,7.5c9.9,0,13.9-3.3,13.9-7.7c0-13.5-41.9-4.2-41.9-31
		c0-12.3,9.9-22.4,30.4-22.4c9.1,0,18.3,2.2,25,6.4l-5.1,12.7c-6.7-3.8-13.6-5.7-20-5.7c-9.9,0-13.7,3.7-13.7,8.2
		c0,13.3,41.9,4.1,41.9,30.6c0,12-10,22.3-30.6,22.3C325.1,220.1,313.5,216.7,307.1,211.7z"/>
	
		<linearGradient id="SVGID_6_" gradientUnits="userSpaceOnUse" x1="87.1275" y1="183.1" x2="945.7058" y2="183.1" gradientTransform="matrix(1 0 0 -1 0 366)">
		<stop  offset="0" style="stop-color:#FAB03B"/>
		<stop  offset="0.5679" style="stop-color:#F7941F"/>
		<stop  offset="0.8938" style="stop-color:#F36823"/>
		<stop  offset="0.999" style="stop-color:#F25924"/>
		<stop  offset="1" style="stop-color:#F25924"/>
	</linearGradient>
	<path class="st5" d="M374,182.8c0-21.7,16.7-37.3,39.1-37.3c12.5,0,22.9,4.5,29.7,12.8l-10.7,9.9c-4.8-5.6-10.9-8.4-18.1-8.4
		c-13.5,0-23.1,9.5-23.1,23.1S400.5,206,414,206c7.2,0,13.3-2.9,18.1-8.5l10.7,9.9c-6.8,8.3-17.2,12.9-29.8,12.9
		C390.6,220.1,374,204.5,374,182.8z"/>
	
		<linearGradient id="SVGID_7_" gradientUnits="userSpaceOnUse" x1="87.1275" y1="183.25" x2="945.7058" y2="183.25" gradientTransform="matrix(1 0 0 -1 0 366)">
		<stop  offset="0" style="stop-color:#FAB03B"/>
		<stop  offset="0.5679" style="stop-color:#F7941F"/>
		<stop  offset="0.8938" style="stop-color:#F36823"/>
		<stop  offset="0.999" style="stop-color:#F25924"/>
		<stop  offset="1" style="stop-color:#F25924"/>
	</linearGradient>
	<path class="st6" d="M454,146.7h16.7v72.1H454V146.7z"/>
	
		<linearGradient id="SVGID_8_" gradientUnits="userSpaceOnUse" x1="87.1275" y1="183.25" x2="945.7058" y2="183.25" gradientTransform="matrix(1 0 0 -1 0 366)">
		<stop  offset="0" style="stop-color:#FAB03B"/>
		<stop  offset="0.5679" style="stop-color:#F7941F"/>
		<stop  offset="0.8938" style="stop-color:#F36823"/>
		<stop  offset="0.999" style="stop-color:#F25924"/>
		<stop  offset="1" style="stop-color:#F25924"/>
	</linearGradient>
	<path class="st7" d="M543.5,205.4v13.4h-55.8v-72.1h54.5v13.4h-37.9v15.6h33.5v13h-33.5v16.7L543.5,205.4L543.5,205.4z"/>
	
		<linearGradient id="SVGID_9_" gradientUnits="userSpaceOnUse" x1="87.1275" y1="183.2" x2="945.7058" y2="183.2" gradientTransform="matrix(1 0 0 -1 0 366)">
		<stop  offset="0" style="stop-color:#FAB03B"/>
		<stop  offset="0.5679" style="stop-color:#F7941F"/>
		<stop  offset="0.8938" style="stop-color:#F36823"/>
		<stop  offset="0.999" style="stop-color:#F25924"/>
		<stop  offset="1" style="stop-color:#F25924"/>
	</linearGradient>
	<path class="st8" d="M622.9,146.7v72.1h-13.7l-35.9-43.7v43.8h-16.5v-72.1h13.8l35.8,43.8v-43.8h16.5V146.7z"/>
	
		<linearGradient id="SVGID_10_" gradientUnits="userSpaceOnUse" x1="87.1275" y1="183.1" x2="945.7058" y2="183.1" gradientTransform="matrix(1 0 0 -1 0 366)">
		<stop  offset="0" style="stop-color:#FAB03B"/>
		<stop  offset="0.5679" style="stop-color:#F7941F"/>
		<stop  offset="0.8938" style="stop-color:#F36823"/>
		<stop  offset="0.999" style="stop-color:#F25924"/>
		<stop  offset="1" style="stop-color:#F25924"/>
	</linearGradient>
	<path class="st9" d="M635.5,182.8c0-21.7,16.7-37.3,39.1-37.3c12.5,0,22.9,4.5,29.6,12.8l-10.7,9.9c-4.8-5.6-10.9-8.4-18.1-8.4
		c-13.5,0-23.1,9.5-23.1,23.1s9.6,23.1,23.1,23.1c7.2,0,13.3-2.9,18.1-8.5l10.7,9.9c-6.8,8.3-17.2,12.9-29.8,12.9
		C652.1,220.1,635.5,204.5,635.5,182.8z"/>
	
		<linearGradient id="SVGID_11_" gradientUnits="userSpaceOnUse" x1="87.1275" y1="183.25" x2="945.7058" y2="183.25" gradientTransform="matrix(1 0 0 -1 0 366)">
		<stop  offset="0" style="stop-color:#FAB03B"/>
		<stop  offset="0.5679" style="stop-color:#F7941F"/>
		<stop  offset="0.8938" style="stop-color:#F36823"/>
		<stop  offset="0.999" style="stop-color:#F25924"/>
		<stop  offset="1" style="stop-color:#F25924"/>
	</linearGradient>
	<path class="st10" d="M771.3,205.4v13.4h-55.8v-72.1H770v13.4h-37.9v15.6h33.5v13h-33.5v16.7L771.3,205.4L771.3,205.4z"/>
	<path class="st11" d="M830.3,160.1v19h33.4v13.4h-33.4v26.3h-16.7v-72.1h54.5v13.4H830.3z"/>
	<path class="st11" d="M874.2,182.8c0-21.4,16.7-37.3,39.4-37.3s39.4,15.8,39.4,37.3s-16.8,37.3-39.4,37.3
		C890.9,220.1,874.2,204.2,874.2,182.8z M936.2,182.8c0-13.7-9.7-23.1-22.5-23.1s-22.5,9.4-22.5,23.1c0,13.7,9.7,23.1,22.5,23.1
		S936.2,196.5,936.2,182.8z"/>
	<path class="st11" d="M1011.6,218.8l-13.9-20.1h-0.8h-14.6v20.1h-16.7v-72.1h31.2c19.3,0,31.3,10,31.3,26.1
		c0,10.8-5.5,18.7-14.8,22.8l16.2,23.2L1011.6,218.8L1011.6,218.8z M995.9,160.3h-13.6v25.1h13.6c10.2,0,15.3-4.7,15.3-12.6
		C1011.2,165,1006.1,160.3,995.9,160.3z"/>
	<path class="st11" d="M1117.9,203.4h-33.5l-6.4,15.4h-17.1l32.1-72.1h16.5l32.2,72.1h-17.4L1117.9,203.4z M1112.6,190.7l-11.4-27.6
		l-11.4,27.6H1112.6z"/>
	<path class="st11" d="M1143.7,182.8c0-21.7,16.7-37.3,39.1-37.3c12.5,0,22.9,4.5,29.7,12.8l-10.7,9.9c-4.8-5.6-10.9-8.4-18.1-8.4
		c-13.5,0-23.1,9.5-23.1,23.1s9.6,23.1,23.1,23.1c7.2,0,13.3-2.9,18.1-8.5l10.7,9.9c-6.8,8.3-17.2,12.9-29.8,12.9
		C1160.4,220.1,1143.7,204.5,1143.7,182.8z"/>
	<path class="st11" d="M1237.9,160.3h-23.1v-13.6h62.8v13.6h-23.1v58.5h-16.7L1237.9,160.3L1237.9,160.3z"/>
	<path class="st11" d="M1286.6,146.7h16.7v72.1h-16.7V146.7z"/>
	<path class="st11" d="M1315.9,182.8c0-21.4,16.7-37.3,39.4-37.3c22.6,0,39.4,15.8,39.4,37.3s-16.8,37.3-39.4,37.3
		C1332.6,220.1,1315.9,204.2,1315.9,182.8z M1377.9,182.8c0-13.7-9.7-23.1-22.5-23.1s-22.5,9.4-22.5,23.1c0,13.7,9.7,23.1,22.5,23.1
		S1377.9,196.5,1377.9,182.8z"/>
	<path class="st11" d="M1473.4,146.7v72.1h-13.7l-35.9-43.8v43.8h-16.5v-72.1h13.8l35.8,43.8v-43.8L1473.4,146.7L1473.4,146.7z"/>
</g>
</svg>
