<?xml version="1.0" encoding="utf-8"?>
<!-- Generator: Adobe Illustrator 25.2.1, SVG Export Plug-In . SVG Version: 6.00 Build 0)  -->
<svg version="1.1" id="Layer_1" xmlns="http://www.w3.org/2000/svg" xmlns:xlink="http://www.w3.org/1999/xlink" x="0px" y="0px"
	 viewBox="0 0 1321.9 364.2" style="enable-background:new 0 0 1321.9 364.2;" xml:space="preserve">
<style type="text/css">
	.st0{opacity:0.5;fill:#002E3D;enable-background:new    ;}
	.st1{fill:url(#SVGID_1_);}
	.st2{enable-background:new    ;}
	.st3{fill:#FFFFFF;}
</style>
<g id="Layer_4">
	<rect x="82" y="103.3" class="st0" width="1162.9" height="157.6"/>
	
		<linearGradient id="SVGID_1_" gradientUnits="userSpaceOnUse" x1="77" y1="586.2102" x2="1245" y2="586.2102" gradientTransform="matrix(1 0 0 1 0 -404.1102)">
		<stop  offset="0" style="stop-color:#FAB03B"/>
		<stop  offset="0.57" style="stop-color:#F7941F"/>
		<stop  offset="0.89" style="stop-color:#F36823"/>
		<stop  offset="1" style="stop-color:#F25924"/>
		<stop  offset="1" style="stop-color:#F25924"/>
	</linearGradient>
	<path class="st1" d="M1245,265.9H77V98.3h1168V265.9z M82,260.9h1157.9V103.3H82V260.9z"/>
	<g class="st2">
		<path class="st3" d="M138.9,160.3h-23.1v-13.6h62.8v13.6h-23.1v58.5h-16.7V160.3z"/>
		<path class="st3" d="M233.5,218.8l-13.9-20.1h-0.8h-14.5v20.1h-16.7v-72.1h31.2c19.3,0,31.3,10,31.3,26.2
			c0,10.8-5.5,18.7-14.8,22.8l16.2,23.2H233.5z M217.9,160.3h-13.6v25.1h13.6c10.2,0,15.3-4.7,15.3-12.6
			C233.2,165,228.1,160.3,217.9,160.3z"/>
		<path class="st3" d="M258.7,182.8c0-21.4,16.7-37.3,39.4-37.3c22.7,0,39.4,15.8,39.4,37.3c0,21.5-16.8,37.3-39.4,37.3
			C275.4,220.1,258.7,204.2,258.7,182.8z M320.7,182.8c0-13.7-9.7-23.1-22.5-23.1c-12.9,0-22.5,9.4-22.5,23.1s9.7,23.1,22.5,23.1
			C311.1,205.9,320.7,196.5,320.7,182.8z"/>
	</g>
	<g class="st2">
		<path class="st3" d="M412.7,172.9c0,16.1-12,26.1-31.3,26.1h-14.5v19.9h-16.7v-72.1h31.2C400.6,146.7,412.7,156.7,412.7,172.9z
			 M395.8,172.9c0-7.9-5.1-12.6-15.3-12.6h-13.6v25h13.6C390.6,185.4,395.8,180.7,395.8,172.9z"/>
	</g>
	<g class="st2">
		<path class="st3" d="M424.5,146.7h16.7v72.1h-16.7V146.7z"/>
	</g>
	<g class="st2">
		<path class="st3" d="M453.7,182.8c0-21.7,16.7-37.3,39.1-37.3c12.5,0,22.9,4.5,29.7,12.8l-10.7,9.9c-4.8-5.6-10.9-8.4-18.1-8.4
			c-13.5,0-23.1,9.5-23.1,23.1s9.6,23.1,23.1,23.1c7.2,0,13.3-2.9,18.1-8.5l10.7,9.9c-6.8,8.3-17.2,12.9-29.8,12.9
			C470.4,220.1,453.7,204.5,453.7,182.8z"/>
	</g>
	<g class="st2">
		<path class="st3" d="M579.8,203.4h-33.5l-6.4,15.4h-17.1l32.1-72.1h16.5l32.2,72.1h-17.5L579.8,203.4z M574.5,190.7l-11.4-27.6
			l-11.4,27.6H574.5z"/>
		<path class="st3" d="M611.2,146.7h16.7v58.5H664v13.6h-52.8V146.7z"/>
	</g>
	<g class="st2">
		<path class="st3" d="M697.9,182.8c0-21.7,16.7-37.3,39.1-37.3c12.5,0,22.9,4.5,29.7,12.8l-10.7,9.9c-4.8-5.6-10.9-8.4-18.1-8.4
			c-13.5,0-23.1,9.5-23.1,23.1s9.6,23.1,23.1,23.1c7.2,0,13.3-2.9,18.1-8.5l10.7,9.9c-6.8,8.3-17.2,12.9-29.8,12.9
			C714.6,220.1,697.9,204.5,697.9,182.8z"/>
	</g>
	<g class="st2">
		<path class="st3" d="M811.8,193.3v25.5h-16.7v-25.7l-27.9-46.3h17.7l19.3,32l19.3-32h16.4L811.8,193.3z"/>
	</g>
	<g class="st2">
		<path class="st3" d="M839.2,182.8c0-21.7,16.7-37.3,39.1-37.3c12.5,0,22.9,4.5,29.7,12.8l-10.7,9.9c-4.8-5.6-10.9-8.4-18.1-8.4
			c-13.5,0-23.1,9.5-23.1,23.1s9.6,23.1,23.1,23.1c7.2,0,13.3-2.9,18.1-8.5l10.7,9.9c-6.8,8.3-17.2,12.9-29.8,12.9
			C855.9,220.1,839.2,204.5,839.2,182.8z"/>
	</g>
	<g class="st2">
		<path class="st3" d="M919.2,146.7h16.7v58.5H972v13.6h-52.8V146.7z"/>
	</g>
	<g class="st2">
		<path class="st3" d="M975.6,182.8c0-21.4,16.7-37.3,39.4-37.3c22.7,0,39.4,15.8,39.4,37.3c0,21.5-16.8,37.3-39.4,37.3
			C992.3,220.1,975.6,204.2,975.6,182.8z M1037.6,182.8c0-13.7-9.7-23.1-22.5-23.1s-22.5,9.4-22.5,23.1s9.7,23.1,22.5,23.1
			S1037.6,196.5,1037.6,182.8z"/>
		<path class="st3" d="M1133.1,146.7v72.1h-13.7l-35.9-43.8v43.8H1067v-72.1h13.8l35.8,43.8v-43.8H1133.1z"/>
		<path class="st3" d="M1206,205.4v13.4h-55.8v-72.1h54.5v13.4h-37.9v15.7h33.5v13h-33.5v16.7H1206z"/>
	</g>
</g>
</svg>
